<svg width="28" height="28" viewBox="0 0 28 28" fill="none" xmlns="http://www.w3.org/2000/svg">
<circle cx="14" cy="14" r="14" fill="white" fill-opacity="0.5"/>
<mask id="mask0_414_178" style="mask-type:alpha" maskUnits="userSpaceOnUse" x="2" y="2" width="24" height="24">
<rect x="2" y="2" width="24" height="24" fill="#D9D9D9"/>
</mask>
<g mask="url(#mask0_414_178)">
<path d="M8 16C7.45 16 6.97933 15.804 6.588 15.412C6.196 15.0207 6 14.55 6 14C6 13.45 6.196 12.979 6.588 12.587C6.97933 12.1957 7.45 12 8 12C8.55 12 9.02067 12.1957 9.412 12.587C9.804 12.979 10 13.45 10 14C10 14.55 9.804 15.0207 9.412 15.412C9.02067 15.804 8.55 16 8 16ZM14 16C13.45 16 12.9793 15.804 12.588 15.412C12.196 15.0207 12 14.55 12 14C12 13.45 12.196 12.979 12.588 12.587C12.9793 12.1957 13.45 12 14 12C14.55 12 15.021 12.1957 15.413 12.587C15.8043 12.979 16 13.45 16 14C16 14.55 15.8043 15.0207 15.413 15.412C15.021 15.804 14.55 16 14 16ZM20 16C19.45 16 18.979 15.804 18.587 15.412C18.1957 15.0207 18 14.55 18 14C18 13.45 18.1957 12.979 18.587 12.587C18.979 12.1957 19.45 12 20 12C20.55 12 21.021 12.1957 21.413 12.587C21.8043 12.979 22 13.45 22 14C22 14.55 21.8043 15.0207 21.413 15.412C21.021 15.804 20.55 16 20 16Z" fill="#18293D"/>
</g>
</svg>
