<svg width="22" height="22" viewBox="0 0 22 22" fill="none" xmlns="http://www.w3.org/2000/svg">
<path fill-rule="evenodd" clip-rule="evenodd" d="M7.12793 1.62167C8.15787 1.57426 8.48626 1.56372 11.1098 1.56372C13.7334 1.56372 14.0618 1.57514 15.0909 1.62167C16.1199 1.66821 16.8224 1.8324 17.437 2.07035C18.0806 2.31357 18.6645 2.69376 19.1474 3.18546C19.6391 3.6675 20.0184 4.25052 20.2608 4.895C20.4996 5.50963 20.6629 6.21206 20.7103 7.23936C20.7577 8.27106 20.7683 8.59944 20.7683 11.2221C20.7683 13.8457 20.7568 14.1741 20.7103 15.204C20.6638 16.2314 20.4996 16.9338 20.2608 17.5484C20.0184 18.193 19.6385 18.777 19.1474 19.2597C18.6645 19.7514 18.0806 20.1307 17.437 20.3731C16.8224 20.6119 16.1199 20.7752 15.0926 20.8226C14.0618 20.87 13.7334 20.8806 11.1098 20.8806C8.48626 20.8806 8.15787 20.8692 7.12793 20.8226C6.10063 20.7761 5.3982 20.6119 4.78357 20.3731C4.13902 20.1307 3.55504 19.7508 3.07228 19.2597C2.58091 18.7774 2.20066 18.1937 1.95804 17.5493C1.7201 16.9347 1.55678 16.2322 1.50937 15.2049C1.46195 14.1732 1.45142 13.8448 1.45142 11.2221C1.45142 8.59857 1.46283 8.27018 1.50937 7.24112C1.5559 6.21206 1.7201 5.50963 1.95804 4.895C2.20102 4.25059 2.58156 3.6669 3.07315 3.18458C3.55523 2.69332 4.13863 2.31308 4.78269 2.07035C5.39732 1.8324 6.09975 1.66909 7.12706 1.62167H7.12793ZM15.0127 3.36019C13.9942 3.31365 13.6886 3.30399 11.1098 3.30399C8.53104 3.30399 8.22548 3.31365 7.20696 3.36019C6.26482 3.40321 5.7538 3.56038 5.41313 3.69296C4.96269 3.86857 4.64045 4.07667 4.30241 4.41471C3.98196 4.72646 3.73535 5.10598 3.58066 5.52543C3.44808 5.86611 3.29091 6.37713 3.24788 7.31926C3.20135 8.33779 3.19169 8.64334 3.19169 11.2221C3.19169 13.8009 3.20135 14.1065 3.24788 15.125C3.29091 16.0672 3.44808 16.5782 3.58066 16.9189C3.73519 17.3377 3.98192 17.7179 4.30241 18.0296C4.61411 18.3501 4.9943 18.5968 5.41313 18.7513C5.7538 18.8839 6.26482 19.0411 7.20696 19.0841C8.22548 19.1306 8.53016 19.1403 11.1098 19.1403C13.6895 19.1403 13.9942 19.1306 15.0127 19.0841C15.9549 19.0411 16.4659 18.8839 16.8066 18.7513C17.257 18.5757 17.5792 18.3676 17.9173 18.0296C18.2378 17.7179 18.4845 17.3377 18.639 16.9189C18.7716 16.5782 18.9288 16.0672 18.9718 15.125C19.0183 14.1065 19.028 13.8009 19.028 11.2221C19.028 8.64334 19.0183 8.33779 18.9718 7.31926C18.9288 6.37713 18.7716 5.86611 18.639 5.52543C18.4634 5.075 18.2553 4.75276 17.9173 4.41471C17.6055 4.09429 17.226 3.84768 16.8066 3.69296C16.4659 3.56038 15.9549 3.40321 15.0127 3.36019ZM9.87619 14.1996C10.5652 14.4864 11.3323 14.5251 12.0466 14.3091C12.761 14.0931 13.3782 13.6358 13.7928 13.0153C14.2074 12.3948 14.3938 11.6496 14.32 10.907C14.2462 10.1644 13.9169 9.47043 13.3883 8.94363C13.0514 8.60689 12.644 8.34904 12.1954 8.18865C11.7468 8.02826 11.2683 7.96933 10.7942 8.01609C10.3201 8.06285 9.86228 8.21414 9.45369 8.45907C9.04509 8.704 8.69589 9.03648 8.43121 9.43257C8.16653 9.82866 7.99297 10.2785 7.92301 10.7497C7.85306 11.2209 7.88845 11.7018 8.02664 12.1577C8.16483 12.6136 8.40239 13.0332 8.72221 13.3863C9.04202 13.7393 9.43614 14.0171 9.87619 14.1996ZM7.59944 7.71175C8.06043 7.25075 8.60771 6.88508 9.21003 6.63559C9.81234 6.3861 10.4579 6.25769 11.1098 6.25769C11.7618 6.25769 12.4073 6.3861 13.0097 6.63559C13.612 6.88508 14.1592 7.25075 14.6202 7.71175C15.0812 8.17274 15.4469 8.72002 15.6964 9.32233C15.9459 9.92465 16.0743 10.5702 16.0743 11.2221C16.0743 11.8741 15.9459 12.5196 15.6964 13.122C15.4469 13.7243 15.0812 14.2716 14.6202 14.7325C13.6892 15.6636 12.4265 16.1866 11.1098 16.1866C9.79318 16.1866 8.53046 15.6636 7.59944 14.7325C6.66843 13.8015 6.14539 12.5388 6.14539 11.2221C6.14539 9.90549 6.66843 8.64276 7.59944 7.71175ZM17.1753 6.99702C17.2896 6.88926 17.381 6.75967 17.4443 6.61593C17.5075 6.47219 17.5413 6.31722 17.5436 6.16019C17.5459 6.00316 17.5166 5.84727 17.4576 5.70175C17.3986 5.55623 17.3109 5.42403 17.1999 5.31298C17.0888 5.20193 16.9566 5.1143 16.8111 5.05526C16.6656 4.99622 16.5097 4.96698 16.3527 4.96927C16.1956 4.97155 16.0407 5.00533 15.8969 5.06858C15.7532 5.13184 15.6236 5.22329 15.5158 5.33753C15.3063 5.5597 15.1915 5.8548 15.196 6.16019C15.2004 6.46558 15.3237 6.75721 15.5397 6.97318C15.7556 7.18914 16.0473 7.31244 16.3527 7.31689C16.6581 7.32134 16.9532 7.2066 17.1753 6.99702Z" fill="#EDEAE1"/>
</svg>
