<svg width="25" height="25" viewBox="0 0 25 25" fill="none" xmlns="http://www.w3.org/2000/svg">
<g clip-path="url(#clip0_82_10)">
<path d="M24.0444 7.24199C23.9107 6.76527 23.6504 6.33367 23.2911 5.99307C22.9216 5.642 22.4688 5.39087 21.9753 5.26339C20.1285 4.7766 12.7294 4.77661 12.7294 4.77661C9.64475 4.74151 6.5609 4.89587 3.49522 5.2388C3.00174 5.37571 2.54974 5.63245 2.17943 5.98619C1.81557 6.33628 1.55202 6.76799 1.41434 7.24101C1.08362 9.02268 0.922931 10.8317 0.934445 12.6438C0.922644 14.4543 1.08294 16.2627 1.41434 18.0466C1.54907 18.5177 1.81164 18.9474 2.17648 19.2945C2.54132 19.6417 2.99565 19.8925 3.49522 20.0252C5.36663 20.511 12.7294 20.511 12.7294 20.511C15.8179 20.5462 18.9057 20.3918 21.9753 20.0488C22.4688 19.9213 22.9216 19.6702 23.2911 19.3191C23.6549 18.972 23.9136 18.5403 24.0434 18.0702C24.3827 16.2892 24.5477 14.4794 24.5361 12.6664C24.5616 10.8458 24.3968 9.02742 24.0444 7.24101V7.24199ZM10.3771 16.011V9.27763L16.5331 12.6448L10.3771 16.011Z" fill="#EDEAE1"/>
</g>
<defs>
<clipPath id="clip0_82_10">
<rect width="23.6016" height="23.6016" fill="white" transform="translate(0.93457 0.843018)"/>
</clipPath>
</defs>
</svg>
