<svg width="27" height="26" viewBox="0 0 27 26" fill="none" xmlns="http://www.w3.org/2000/svg">
<path d="M23.7412 6.27988C22.9855 6.60585 22.1632 6.84045 21.3161 6.93182C22.1955 6.40937 22.8541 5.58398 23.1682 4.61051C22.343 5.10142 21.439 5.44565 20.4963 5.62794C20.1023 5.20671 19.6257 4.87114 19.0963 4.64214C18.567 4.41314 17.9961 4.29561 17.4193 4.29689C15.0856 4.29689 13.2088 6.18851 13.2088 8.50982C13.2088 8.83579 13.2483 9.16176 13.3126 9.47539C9.81824 9.29264 6.70176 7.62328 4.62986 5.06736C4.25234 5.71218 4.05451 6.44639 4.05694 7.19359C4.05694 8.65552 4.80026 9.94459 5.93375 10.7027C5.26577 10.6764 4.61342 10.4928 4.02978 10.1668V10.2187C4.02978 12.2659 5.4769 13.9624 7.40556 14.3526C7.04343 14.4467 6.67091 14.4948 6.29676 14.4958C6.02265 14.4958 5.76336 14.4687 5.50159 14.4316C6.035 16.101 7.5883 17.3135 9.43794 17.353C7.99083 18.4865 6.17823 19.1533 4.21005 19.1533C3.85692 19.1533 3.53095 19.1409 3.19263 19.1014C5.05955 20.2991 7.27468 20.9906 9.66019 20.9906C17.4045 20.9906 21.6421 14.5749 21.6421 9.00619C21.6421 8.82344 21.6421 8.6407 21.6298 8.45796C22.4496 7.85788 23.1682 7.11456 23.7412 6.27988Z" fill="#EDEAE1"/>
</svg>
