<svg width="6" height="4" viewBox="0 0 6 4" fill="none" xmlns="http://www.w3.org/2000/svg">
<path d="M5.89022 2.26489L4.39022 3.76489C4.24373 3.91138 4.00643 3.91138 3.85994 3.76489C3.71346 3.61841 3.71346 3.3811 3.85994 3.23462L4.71922 2.37505L0.37508 2.37505C0.167775 2.37505 8.01352e-05 2.20735 8.01533e-05 2.00005C8.01715e-05 1.79274 0.167776 1.62505 0.37508 1.62505L4.71922 1.62505L3.8593 0.765127C3.71282 0.618642 3.71282 0.381338 3.8593 0.234853C4.00567 0.088486 4.24297 0.0882517 4.38957 0.234853L5.88957 1.73485C6.0367 1.88169 6.0367 2.11841 5.89022 2.26489Z" fill="white"/>
</svg>
