<svg width="69" height="55" viewBox="0 0 69 55" fill="none" xmlns="http://www.w3.org/2000/svg">
<mask id="mask0_305_289" style="mask-type:alpha" maskUnits="userSpaceOnUse" x="0" y="0" width="69" height="55">
<rect x="0.275391" width="68.1434" height="55" fill="#D9D9D9"/>
<rect x="0.275391" width="68.1434" height="55" fill="black" fill-opacity="0.2"/>
</mask>
<g mask="url(#mask0_305_289)">
<path d="M17.3119 43.5417V45.8334C17.3119 46.4827 17.0402 47.0266 16.497 47.465C15.9518 47.905 15.277 48.125 14.4726 48.125H11.6333C10.8288 48.125 10.1549 47.905 9.61167 47.465C9.06652 47.0266 8.79395 46.4827 8.79395 45.8334V27.5L14.7565 13.75C15.0404 13.0625 15.5496 12.5087 16.284 12.0886C17.0166 11.6684 17.8324 11.4584 18.7315 11.4584H49.9639C50.863 11.4584 51.6798 11.6684 52.4142 12.0886C53.1468 12.5087 53.655 13.0625 53.9389 13.75L59.9015 27.5V45.8334C59.9015 46.4827 59.6289 47.0266 59.0838 47.465C58.5405 47.905 57.8666 48.125 57.0622 48.125H54.2229C53.4184 48.125 52.7445 47.905 52.2013 47.465C51.6561 47.0266 51.3836 46.4827 51.3836 45.8334V43.5417H17.3119ZM16.744 22.9167H51.9514L48.9701 16.0417H19.7253L16.744 22.9167ZM21.5708 36.6667C22.7539 36.6667 23.759 36.3321 24.5862 35.663C25.4153 34.9953 25.8298 34.1841 25.8298 33.2292C25.8298 32.2743 25.4153 31.4631 24.5862 30.7955C23.759 30.1263 22.7539 29.7917 21.5708 29.7917C20.3878 29.7917 19.3827 30.1263 18.5555 30.7955C17.7264 31.4631 17.3119 32.2743 17.3119 33.2292C17.3119 34.1841 17.7264 34.9953 18.5555 35.663C19.3827 36.3321 20.3878 36.6667 21.5708 36.6667ZM47.1246 36.6667C48.3076 36.6667 49.3128 36.3321 50.1399 35.663C50.969 34.9953 51.3836 34.1841 51.3836 33.2292C51.3836 32.2743 50.969 31.4631 50.1399 30.7955C49.3128 30.1263 48.3076 29.7917 47.1246 29.7917C45.9416 29.7917 44.9364 30.1263 44.1093 30.7955C43.2802 31.4631 42.8656 32.2743 42.8656 33.2292C42.8656 34.1841 43.2802 34.9953 44.1093 35.663C44.9364 36.3321 45.9416 36.6667 47.1246 36.6667ZM14.4726 38.9584H54.2229V27.5H14.4726V38.9584Z" fill="#18293D"/>
</g>
</svg>
