<svg width="30" height="30" viewBox="0 0 30 30" fill="none" xmlns="http://www.w3.org/2000/svg">
<circle cx="15" cy="15" r="14" fill="#DBBC99"/>
<path d="M5.61458 22.0208C6.85417 21.0729 8.23958 20.3253 9.77083 19.7779C11.3021 19.2315 12.9062 18.9583 14.5833 18.9583C16.2604 18.9583 17.8646 19.2315 19.3958 19.7779C20.9271 20.3253 22.3125 21.0729 23.5521 22.0208C24.4028 21.0243 25.0653 19.8941 25.5398 18.6302C26.0133 17.3663 26.25 16.0174 26.25 14.5833C26.25 11.3507 25.114 8.59785 22.8419 6.32479C20.5688 4.05271 17.816 2.91667 14.5833 2.91667C11.3507 2.91667 8.59833 4.05271 6.32625 6.32479C4.05319 8.59785 2.91667 11.3507 2.91667 14.5833C2.91667 16.0174 3.15389 17.3663 3.62833 18.6302C4.10181 19.8941 4.76389 21.0243 5.61458 22.0208ZM14.5833 16.0417C13.1493 16.0417 11.9399 15.5497 10.955 14.5658C9.97111 13.581 9.47917 12.3715 9.47917 10.9375C9.47917 9.50347 9.97111 8.29403 10.955 7.30917C11.9399 6.32528 13.1493 5.83333 14.5833 5.83333C16.0174 5.83333 17.2268 6.32528 18.2117 7.30917C19.1956 8.29403 19.6875 9.50347 19.6875 10.9375C19.6875 12.3715 19.1956 13.581 18.2117 14.5658C17.2268 15.5497 16.0174 16.0417 14.5833 16.0417ZM14.5833 29.1667C12.566 29.1667 10.6701 28.7836 8.89583 28.0175C7.12153 27.2524 5.57812 26.2135 4.26562 24.901C2.95313 23.5885 1.91431 22.0451 1.14917 20.2708C0.383056 18.4965 0 16.6007 0 14.5833C0 12.566 0.383056 10.6701 1.14917 8.89583C1.91431 7.12153 2.95313 5.57812 4.26562 4.26562C5.57812 2.95313 7.12153 1.91382 8.89583 1.14771C10.6701 0.382569 12.566 0 14.5833 0C16.6007 0 18.4965 0.382569 20.2708 1.14771C22.0451 1.91382 23.5885 2.95313 24.901 4.26562C26.2135 5.57812 27.2524 7.12153 28.0175 8.89583C28.7836 10.6701 29.1667 12.566 29.1667 14.5833C29.1667 16.6007 28.7836 18.4965 28.0175 20.2708C27.2524 22.0451 26.2135 23.5885 24.901 24.901C23.5885 26.2135 22.0451 27.2524 20.2708 28.0175C18.4965 28.7836 16.6007 29.1667 14.5833 29.1667ZM14.5833 26.25C15.8715 26.25 17.0868 26.0619 18.2292 25.6856C19.3715 25.3084 20.4167 24.7674 21.3646 24.0625C20.4167 23.3576 19.3715 22.8166 18.2292 22.4394C17.0868 22.0631 15.8715 21.875 14.5833 21.875C13.2951 21.875 12.0799 22.0631 10.9375 22.4394C9.79514 22.8166 8.75 23.3576 7.80208 24.0625C8.75 24.7674 9.79514 25.3084 10.9375 25.6856C12.0799 26.0619 13.2951 26.25 14.5833 26.25ZM14.5833 13.125C15.2153 13.125 15.7378 12.9184 16.151 12.5052C16.5642 12.092 16.7708 11.5694 16.7708 10.9375C16.7708 10.3056 16.5642 9.78299 16.151 9.36979C15.7378 8.9566 15.2153 8.75 14.5833 8.75C13.9514 8.75 13.4288 8.9566 13.0156 9.36979C12.6024 9.78299 12.3958 10.3056 12.3958 10.9375C12.3958 11.5694 12.6024 12.092 13.0156 12.5052C13.4288 12.9184 13.9514 13.125 14.5833 13.125Z" fill="white"/>
</svg>
