<svg width="23" height="23" viewBox="0 0 23 23" fill="none" xmlns="http://www.w3.org/2000/svg">
<g clip-path="url(#clip0_54_1257)">
<mask id="mask0_54_1257" style="mask-type:alpha" maskUnits="userSpaceOnUse" x="0" y="0" width="31" height="31">
<rect x="0.184326" y="0.184082" width="30" height="30" fill="#D9D9D9"/>
</mask>
<g mask="url(#mask0_54_1257)">
<path d="M4.63522 20.3262C4.09359 20.8678 3.21544 20.8678 2.67382 20.3262C2.13219 19.7846 2.13219 18.9064 2.67382 18.3648L9.53873 11.4999L2.67382 4.63498C2.13219 4.09335 2.13219 3.2152 2.67382 2.67357C3.21544 2.13195 4.09359 2.13195 4.63522 2.67357L11.5001 9.53849L18.365 2.67357C18.9067 2.13195 19.7848 2.13195 20.3265 2.67357C20.8681 3.2152 20.8681 4.09335 20.3264 4.63498L13.4615 11.4999L20.3264 18.3648C20.8681 18.9064 20.8681 19.7846 20.3265 20.3262C19.7848 20.8678 18.9067 20.8678 18.365 20.3262L11.5001 13.4613L4.63522 20.3262Z" fill="#EDEAE1"/>
</g>
</g>
<defs>
<clipPath id="clip0_54_1257">
<rect width="22.6316" height="22.6316" fill="white" transform="translate(0.184326 0.184082)"/>
</clipPath>
</defs>
</svg>
