<svg width="16" height="16" viewBox="0 0 16 16" fill="none" xmlns="http://www.w3.org/2000/svg">
<path d="M7.84043 12.5C8.10293 12.5 8.32493 12.4092 8.50643 12.2277C8.68743 12.0467 8.77793 11.825 8.77793 11.5625C8.77793 11.3 8.68743 11.0782 8.50643 10.8973C8.32493 10.7157 8.10293 10.625 7.84043 10.625C7.57793 10.625 7.35593 10.7157 7.17443 10.8973C6.99343 11.0782 6.90293 11.3 6.90293 11.5625C6.90293 11.825 6.99343 12.0467 7.17443 12.2277C7.35593 12.4092 7.57793 12.5 7.84043 12.5ZM7.16543 9.6125H8.55293C8.55293 9.2 8.59993 8.875 8.69393 8.6375C8.78743 8.4 9.05293 8.075 9.49043 7.6625C9.81543 7.3375 10.0717 7.028 10.2592 6.734C10.4467 6.4405 10.5404 6.0875 10.5404 5.675C10.5404 4.975 10.2842 4.4375 9.77168 4.0625C9.25918 3.6875 8.65293 3.5 7.95293 3.5C7.24043 3.5 6.66243 3.6875 6.21893 4.0625C5.77493 4.4375 5.46543 4.8875 5.29043 5.4125L6.52793 5.9C6.59043 5.675 6.73118 5.43125 6.95018 5.16875C7.16868 4.90625 7.50293 4.775 7.95293 4.775C8.35293 4.775 8.65293 4.88425 8.85293 5.10275C9.05293 5.32175 9.15293 5.5625 9.15293 5.825C9.15293 6.075 9.07793 6.30925 8.92793 6.52775C8.77793 6.74675 8.59043 6.95 8.36543 7.1375C7.81543 7.625 7.47793 7.99375 7.35293 8.24375C7.22793 8.49375 7.16543 8.95 7.16543 9.6125ZM7.87793 15.5C6.84043 15.5 5.86543 15.303 4.95293 14.909C4.04043 14.5155 3.24668 13.9813 2.57168 13.3063C1.89668 12.6313 1.36243 11.8375 0.96893 10.925C0.57493 10.0125 0.37793 9.0375 0.37793 8C0.37793 6.9625 0.57493 5.9875 0.96893 5.075C1.36243 4.1625 1.89668 3.36875 2.57168 2.69375C3.24668 2.01875 4.04043 1.48425 4.95293 1.09025C5.86543 0.69675 6.84043 0.5 7.87793 0.5C8.91543 0.5 9.89043 0.69675 10.8029 1.09025C11.7154 1.48425 12.5092 2.01875 13.1842 2.69375C13.8592 3.36875 14.3934 4.1625 14.7869 5.075C15.1809 5.9875 15.3779 6.9625 15.3779 8C15.3779 9.0375 15.1809 10.0125 14.7869 10.925C14.3934 11.8375 13.8592 12.6313 13.1842 13.3063C12.5092 13.9813 11.7154 14.5155 10.8029 14.909C9.89043 15.303 8.91543 15.5 7.87793 15.5ZM7.87793 14C9.55293 14 10.9717 13.4187 12.1342 12.2562C13.2967 11.0937 13.8779 9.675 13.8779 8C13.8779 6.325 13.2967 4.90625 12.1342 3.74375C10.9717 2.58125 9.55293 2 7.87793 2C6.20293 2 4.78418 2.58125 3.62168 3.74375C2.45918 4.90625 1.87793 6.325 1.87793 8C1.87793 9.675 2.45918 11.0937 3.62168 12.2562C4.78418 13.4187 6.20293 14 7.87793 14Z" fill="#18293D"/>
</svg>
