<svg width="64" height="35" viewBox="0 0 64 35" fill="none" xmlns="http://www.w3.org/2000/svg">
<path d="M0.65918 34.5416V0.166626H6.33779V23.0833H29.0523V4.74996H51.7667C54.89 4.74996 57.5636 5.64753 59.7878 7.44267C62.0119 9.23781 63.1239 11.3958 63.1239 13.9166V34.5416H57.4453V27.6666H6.33779V34.5416H0.65918ZM17.695 20.7916C15.3289 20.7916 13.3178 20.1232 11.6615 18.7864C10.0052 17.4496 9.1771 15.8263 9.1771 13.9166C9.1771 12.0069 10.0052 10.3836 11.6615 9.04683C13.3178 7.71003 15.3289 7.04163 17.695 7.04163C20.0611 7.04163 22.0723 7.71003 23.7286 9.04683C25.3848 10.3836 26.2129 12.0069 26.2129 13.9166C26.2129 15.8263 25.3848 17.4496 23.7286 18.7864C22.0723 20.1232 20.0611 20.7916 17.695 20.7916ZM34.7309 23.0833H57.4453V13.9166C57.4453 12.6562 56.8898 11.5768 55.7787 10.6785C54.6656 9.7817 53.3283 9.33329 51.7667 9.33329H34.7309V23.0833ZM17.695 16.2083C18.4995 16.2083 19.1743 15.9883 19.7194 15.5483C20.2627 15.1098 20.5343 14.5659 20.5343 13.9166C20.5343 13.2673 20.2627 12.7227 19.7194 12.2827C19.1743 11.8442 18.4995 11.625 17.695 11.625C16.8906 11.625 16.2157 11.8442 15.6706 12.2827C15.1273 12.7227 14.8557 13.2673 14.8557 13.9166C14.8557 14.5659 15.1273 15.1098 15.6706 15.5483C16.2157 15.9883 16.8906 16.2083 17.695 16.2083Z" fill="#18293D"/>
</svg>
