<svg width="69" height="55" viewBox="0 0 69 55" fill="none" xmlns="http://www.w3.org/2000/svg">
<mask id="mask0_305_295" style="mask-type:alpha" maskUnits="userSpaceOnUse" x="0" y="0" width="69" height="55">
<rect x="0.492188" width="68.1434" height="55" fill="#D9D9D9"/>
</mask>
<g mask="url(#mask0_305_295)">
<path d="M17.5282 32.0833C15.9666 32.0833 14.6302 31.6341 13.5191 30.7358C12.4061 29.839 11.8496 28.7604 11.8496 27.5C11.8496 26.2395 12.4061 25.1602 13.5191 24.2618C14.6302 23.365 15.9666 22.9166 17.5282 22.9166C19.0898 22.9166 20.4262 23.365 21.5373 24.2618C22.6503 25.1602 23.2068 26.2395 23.2068 27.5C23.2068 28.7604 22.6503 29.839 21.5373 30.7358C20.4262 31.6341 19.0898 32.0833 17.5282 32.0833ZM34.5641 32.0833C33.0024 32.0833 31.6661 31.6341 30.555 30.7358C29.442 29.839 28.8855 28.7604 28.8855 27.5C28.8855 26.2395 29.442 25.1602 30.555 24.2618C31.6661 23.365 33.0024 22.9166 34.5641 22.9166C36.1257 22.9166 37.463 23.365 38.576 24.2618C39.6871 25.1602 40.2427 26.2395 40.2427 27.5C40.2427 28.7604 39.6871 29.839 38.576 30.7358C37.463 31.6341 36.1257 32.0833 34.5641 32.0833ZM51.5999 32.0833C50.0383 32.0833 48.701 31.6341 47.588 30.7358C46.4769 29.839 45.9213 28.7604 45.9213 27.5C45.9213 26.2395 46.4769 25.1602 47.588 24.2618C48.701 23.365 50.0383 22.9166 51.5999 22.9166C53.1615 22.9166 54.4988 23.365 55.6119 24.2618C56.723 25.1602 57.2785 26.2395 57.2785 27.5C57.2785 28.7604 56.723 29.839 55.6119 30.7358C54.4988 31.6341 53.1615 32.0833 51.5999 32.0833Z" fill="#18293D"/>
</g>
</svg>
