<svg width="22" height="22" viewBox="0 0 19 19" fill="transparent" xmlns="http://www.w3.org/2000/svg">
<g clip-path="url(#clip0_24:1503)">
<path  d="M18.2083 2.37503C17.4502 2.90978 16.6108 3.31878 15.7225 3.58628C15.2457 3.03806 14.612 2.64949 13.9072 2.47313C13.2024 2.29678 12.4604 2.34114 11.7816 2.60022C11.1028 2.8593 10.52 3.32059 10.1119 3.92172C9.70383 4.52284 9.49022 5.23479 9.49996 5.96128V6.75294C8.10871 6.78902 6.73013 6.48046 5.48701 5.85475C4.24388 5.22905 3.17479 4.30561 2.37496 3.16669C2.37496 3.16669 -0.791707 10.2917 6.33329 13.4584C4.70288 14.5651 2.76062 15.12 0.791626 15.0417C7.91663 19 16.625 15.0417 16.625 5.93753C16.6242 5.71701 16.603 5.49704 16.5616 5.28044C17.3696 4.48363 17.9398 3.47759 18.2083 2.37503V2.37503Z" stroke="white" stroke-width="1.5" stroke-linecap="round" stroke-linejoin="round"/>
</g>
<defs>
<clipPath id="clip0_24:1503">
<rect width="22" height="22" fill="transparent"/>
</clipPath>
</defs>
</svg>
